<svg t="1736131442887" class="icon" viewBox="0 0 1024 1024" version="1.1" xmlns="http://www.w3.org/2000/svg" p-id="5394" width="32" height="32"><path d="M135.7 696.9c20.8-10.9 40.3-19 57.2-30.8 12.6-8.8 22.6-21.9 32.2-34.3 31.5-40.3 62.2-81.1 93.3-121.7 10.6-13.9 21.1-27.8 31.9-41.5 23.2-29.5 52.3-29.6 75.9 0.5 23.5 30 46 60.8 69.2 91.1 23.6 30.9 45.8 63.1 71.5 92.2 47.8 54 120.5 52.1 165.7-4.1 36.1-44.9 69.8-91.6 104.8-137.4 13.1-17.1 26.5-33.9 40.4-50.3 9.2-10.9 21.5-15.6 36-13.5 15.4 2.2 23.6 10.9 25 26.4 9.3 105.4-18.8 200.7-80.7 285.4-39.5 54-90 96.2-150.6 126.4-40.8 20.3-83.3 33.9-127.9 41.3-52.2 8.7-104.4 6.4-155.9-5.4-73.4-16.7-138.3-49.6-194.6-100.3-35.2-31.7-62.9-68.6-86.6-109.1-3.2-5.5-5.3-11.6-6.8-14.9z" p-id="5395" fill="#709C49"></path><path d="M880.7 303.2c-23.7-40.5-51.4-77.4-86.6-109.1-56.3-50.7-121.2-83.6-194.6-100.3-51.5-11.7-103.7-14-155.9-5.4-44.6 7.4-87.1 21-127.9 41.3-60.6 30.2-111.1 72.3-150.6 126.4-61.9 84.7-90 180-80.7 285.4 1.4 15.5 9.6 24.2 25 26.4 14.5 2.1 26.8-2.6 36-13.5 13.9-16.4 27.3-33.2 40.4-50.3 35-45.7 68.7-92.5 104.8-137.4 45.2-56.2 118-58.1 165.7-4.1 25.7 29.1 47.9 61.3 71.5 92.2 23.1 30.3 45.7 61.1 69.2 91.1 23.6 30.1 52.8 30.1 75.9 0.5 10.8-13.7 21.3-27.7 31.9-41.5 31-40.6 61.8-81.4 93.3-121.7 9.7-12.4 19.6-25.4 32.2-34.3 16.9-11.8 36.4-19.9 57.2-30.8-1.4-3.4-3.6-9.5-6.8-14.9z m-220.5 21.7c-26.6 0-48.2-21.6-48.2-48.2s21.6-48.2 48.2-48.2 48.2 21.6 48.2 48.2-21.6 48.2-48.2 48.2z" p-id="5396" fill="#709C49"></path></svg>